# xmcd
#
# Track frame offsets: 
#        150
#        12750
#        26718
#        39023
#        53403
#        65933
#        78853
#        93155
#        105935
#        121758
#        133100
#        146013
#
# Disc length: 2142 seconds
#
# Revision: 8
# Processed by: cddbd v1.5.2PL0 Copyright (c) Steve Scherf et al.
# Submitted via: ExactAudioCopyFreeDBPlugin 1.0
#
DISCID=8c085c0c
DTITLE=Various Artist - Didn't It Blow Your Mind!:  Soul Hits of the 
DTITLE='70s [Rhino series]
DYEAR=1991
DGENRE=SMB
TTITLE0=The Honey Cone - Want Ads
TTITLE1=The 8th Day - She's Not Just Another Woman
TTITLE2=Paul Humphrey and His Cool Aid Chemists - Cool Aid
TTITLE3=The Chi-Lites - Are You My Woman (Tell Me So)
TTITLE4=The Cornelius Brothers and Sister Rose - Treat Her Like a Lady
TTITLE5=King Floyd - Baby Let Me Kiss You
TTITLE6=The Beginning of the End - Funky Nassau, Part 1
TTITLE7=Dave and Ansil Collins - Double Barrel
TTITLE8=Freda Payne - Bring the Boys Home
TTITLE9=Jean Knight - Mr. Big Stuff
TTITLE10=The Honey Cone - Stick Up
TTITLE11=The Undisputed Truth - Smiling Faces Sometimes
EXTD=YEAR: 1970
EXTT0=1971
EXTT1=1971
EXTT2=1971
EXTT3=1971
EXTT4=1971
EXTT5=1971
EXTT6=1971
EXTT7=1971
EXTT8=1971
EXTT9=1971
EXTT10=1971
EXTT11=1971
PLAYORDER=
